<?xml version="1.0" encoding="UTF-8"?>
<!DOCTYPE svg PUBLIC "-//W3C//DTD SVG 1.1//EN" "http://www.w3.org/Graphics/SVG/1.1/DTD/svg11.dtd">
<!-- Creator: CorelDRAW 2017 -->
<svg xmlns="http://www.w3.org/2000/svg" xml:space="preserve" width="10.6713mm" height="15.522mm" version="1.1" style="shape-rendering:geometricPrecision; text-rendering:geometricPrecision; image-rendering:optimizeQuality; fill-rule:evenodd; clip-rule:evenodd"
viewBox="0 0 164.04 238.6"
 xmlns:xlink="http://www.w3.org/1999/xlink">
 <defs>
  <style type="text/css">
   <![CDATA[
    .fil0 {fill:#90D2D9}
   ]]>
  </style>
 </defs>
 <g id="Layer_x0020_1">
  <metadata id="CorelCorpID_0Corel-Layer"/>
  <path id="Caminho_1867" class="fil0" d="M133.84 121.93c9.92,-13.59 15.28,-30.01 15.28,-46.84 0,-0.16 0,-0.35 0,-0.51 -0,-41.19 -30.04,-74.57 -67.11,-74.57 -37.06,0 -67.11,33.38 -67.11,74.56 0,0.17 0,0.35 0,0.52 0,16.84 5.36,33.26 15.29,46.84 -18.02,6.15 -30.16,23.07 -30.19,42.12l0 29.82c0,24.7 20.03,44.74 44.74,44.74l74.56 0c24.7,-0 44.74,-20.04 44.74,-44.74l0 -29.82c-0.04,-19.04 -12.18,-35.97 -30.19,-42.11l-0 0zm-104.02 -47.36c0,-32.94 23.37,-59.65 52.19,-59.65 28.82,0 52.19,26.71 52.19,59.65 0,32.94 -23.38,59.65 -52.19,59.65 -28.81,0 -52.2,-26.71 -52.2,-59.65zm119.3 115.57c0,18.53 -16.39,33.55 -36.6,33.55l-61.01 0c-20.21,0 -36.6,-15.02 -36.6,-33.55l0 -22.37c0.54,-16.13 12.28,-29.7 28.16,-32.57 10.98,9 24.75,13.93 38.95,13.93 14.2,0 27.97,-4.93 38.95,-13.93 15.88,2.86 27.62,16.44 28.16,32.56l-0 22.37z" data-name="Caminho 1867"/>
 </g>
</svg>
