<?xml version="1.0" encoding="UTF-8"?>
<!DOCTYPE svg PUBLIC "-//W3C//DTD SVG 1.1//EN" "http://www.w3.org/Graphics/SVG/1.1/DTD/svg11.dtd">
<!-- Creator: CorelDRAW 2017 -->
<svg xmlns="http://www.w3.org/2000/svg" xml:space="preserve" width="14.6401mm" height="13.08mm" version="1.1" style="shape-rendering:geometricPrecision; text-rendering:geometricPrecision; image-rendering:optimizeQuality; fill-rule:evenodd; clip-rule:evenodd"
viewBox="0 0 248.3 221.84"
 xmlns:xlink="http://www.w3.org/1999/xlink">
 <defs>
  <style type="text/css">
   <![CDATA[
    .fil0 {fill:url(#id0)}
   ]]>
  </style>
  <linearGradient id="id0" gradientUnits="userSpaceOnUse" x1="124.15" y1="0" x2="124.15" y2="221.84">
   <stop offset="0" style="stop-opacity:1; stop-color:#81F3BE"/>
   <stop offset="1" style="stop-opacity:1; stop-color:#97C4E5"/>
  </linearGradient>
 </defs>
 <g id="Layer_x0020_1">
  <metadata id="CorelCorpID_0Corel-Layer"/>
  <path id="Caminho_2043" class="fil0" d="M33.6 118.89c0.18,-3.2 2.82,-5.7 6.02,-5.7 3.2,0 5.84,2.5 6.02,5.7l-0 91.51 53.77 0 0 -38.26c0.08,-3.19 2.69,-5.73 5.87,-5.73 0.06,0 0.11,0 0.17,0l36.93 0c0.05,-0 0.1,-0 0.15,-0 3.18,0 5.79,2.54 5.87,5.72l0 38.26 52.5 0 0 -94.74c0.17,-3.2 2.82,-5.69 6.02,-5.69 3.2,0 5.84,2.5 6.02,5.69l0 100.46c-0.08,3.18 -2.69,5.72 -5.87,5.72 -0.05,0 -0.1,-0 -0.15,-0l-64.56 0c-0.05,-0 -0.1,0 -0.15,0 -3.18,0 -5.79,-2.54 -5.87,-5.72l0 -38.26 -24.9 0 0 38.26c-0.08,3.18 -2.68,5.72 -5.87,5.72 -0.04,0 -0.08,0 -0.12,-0l-65.83 0c-0.04,-0 -0.09,0 -0.14,0 -3.18,0 -5.79,-2.54 -5.87,-5.72l-0 -97.23zm-23.32 2.83c-1.15,1.08 -2.68,1.68 -4.26,1.68 -1.58,0 -3.11,-0.6 -4.26,-1.68 -1.12,-1.04 -1.76,-2.51 -1.76,-4.04 0,-1.53 0.65,-2.98 1.76,-4.04l117.83 -111.96c1.16,-1.08 2.68,-1.68 4.27,-1.68 1.58,0 3.1,0.6 4.26,1.68l48.72 46.32 0.26 -25.87c0.17,-3.18 2.8,-5.67 5.99,-5.67 3.22,0 5.87,2.55 5.99,5.76l-0.37 37.04 57.83 54.98c1.12,1.04 1.76,2.51 1.76,4.04 0,1.53 -0.64,2.99 -1.76,4.04 -1.15,1.08 -2.68,1.68 -4.26,1.68 -1.58,0 -3.11,-0.6 -4.26,-1.68l-58.2 -55.31c-1,-0.51 -1.84,-1.3 -2.4,-2.28l-53.58 -50.92 -113.55 107.91 0 0z" data-name="Caminho 2043"/>
 </g>
</svg>
