<?xml version="1.0" encoding="UTF-8"?>
<!DOCTYPE svg PUBLIC "-//W3C//DTD SVG 1.1//EN" "http://www.w3.org/Graphics/SVG/1.1/DTD/svg11.dtd">
<!-- Creator: CorelDRAW 2017 -->
<svg xmlns="http://www.w3.org/2000/svg" xml:space="preserve" width="16.356mm" height="14.7274mm" version="1.1" style="shape-rendering:geometricPrecision; text-rendering:geometricPrecision; image-rendering:optimizeQuality; fill-rule:evenodd; clip-rule:evenodd"
viewBox="0 0 272.49 245.36"
 xmlns:xlink="http://www.w3.org/1999/xlink">
 <defs>
  <style type="text/css">
   <![CDATA[
    .fil0 {fill:url(#id0)}
   ]]>
  </style>
  <linearGradient id="id0" gradientUnits="userSpaceOnUse" x1="35.39" y1="44.09" x2="241.41" y2="216.53">
   <stop offset="0" style="stop-opacity:1; stop-color:#81F3BE"/>
   <stop offset="1" style="stop-opacity:1; stop-color:#97C4E5"/>
  </linearGradient>
 </defs>
 <g id="Layer_x0020_1">
  <metadata id="CorelCorpID_0Corel-Layer"/>
  <path id="Caminho_2044" class="fil0" d="M88.42 60.86c-3.46,-13.31 -14.99,-35.08 -29.04,-22.2 -43.51,39.86 49.47,109.6 55.46,112.59 21.21,10.62 55.71,-14.88 30.91,-34.59 -31.03,-24.66 -18.4,19.64 -41.54,0.32 -4.51,-3.77 -6.35,-9.76 -14.11,-16.86 -25.66,-23.53 -8.93,-22.52 -1.69,-39.26l0.01 0zm-33.23 140.2c-1.54,-16.22 3.24,-32.98 -6.65,-41.38 -4.62,-2.87 -9.05,-6.16 -13.16,-9.73 -3.78,-3.88 -7.4,-8.06 -10.73,-12.37 -14.27,-18.92 -16.75,-52.78 -4.93,-77.77 29.73,-62.87 144.25,-64.26 170.2,7.74 18.69,51.86 -21.21,99.53 -72.7,105.07 -46.4,5 -13.93,-1.83 -62.03,28.43l-0 0zm171.66 -128.25c44.37,28.72 50.14,95.76 -1.29,119.09 -0.24,11.97 0.25,20.46 -0.63,39.05 -6.23,-4.08 -28.23,-25.54 -35.99,-29.77 -19.58,-1.25 -41.11,-6.57 -55.42,-16.95 8.19,-5.55 19.81,-7.15 29.59,-13.74 36.87,-24.81 44.03,-50.56 40.82,-100.47 12.74,-0.93 20.81,1.43 22.93,2.8zm-184.68 98.97l0.71 53.43c9.2,-3.62 32.78,-22.43 41.35,-28.85 24.42,-18.27 27.22,-10.56 48.14,2.9 22.3,14.34 41.57,8.33 56.86,15.43 12.63,8.18 29.02,20.75 44.23,30.67l0.12 -45.72c31.41,-16.9 39.94,-48.43 38.83,-67.35 -1.6,-27.43 -16.93,-52.27 -37.41,-68.65 -14.36,-11.48 -41.25,-17.14 -44.24,-21.37 -47.34,-79.68 -217.88,-42.85 -187.05,78.09 7.11,27.91 20.28,35.99 38.45,51.42l0 -0z" data-name="Caminho 2044"/>
 </g>
</svg>
