<?xml version="1.0" encoding="UTF-8"?>
<!DOCTYPE svg PUBLIC "-//W3C//DTD SVG 1.1//EN" "http://www.w3.org/Graphics/SVG/1.1/DTD/svg11.dtd">
<!-- Creator: CorelDRAW 2017 -->
<svg xmlns="http://www.w3.org/2000/svg" xml:space="preserve" width="10.6706mm" height="10.6718mm" version="1.1" style="shape-rendering:geometricPrecision; text-rendering:geometricPrecision; image-rendering:optimizeQuality; fill-rule:evenodd; clip-rule:evenodd"
viewBox="0 0 284.42 284.45"
 xmlns:xlink="http://www.w3.org/1999/xlink">
 <defs>
  <style type="text/css">
   <![CDATA[
    .fil0 {fill:url(#id0)}
   ]]>
  </style>
  <linearGradient id="id0" gradientUnits="userSpaceOnUse" x1="284.45" y1="220.73" x2="67.13" y2="51.23">
   <stop offset="0" style="stop-opacity:1; stop-color:#9CF4ED"/>
   <stop offset="1" style="stop-opacity:1; stop-color:#8686F7"/>
  </linearGradient>
 </defs>
 <g id="Layer_x0020_1">
  <metadata id="CorelCorpID_0Corel-Layer"/>
  <path id="Caminho_1866" class="fil0" d="M142.23 0l-0.03 0 -18.77 0c-10.4,0.05 -18.8,8.49 -18.8,18.89 0,0.03 0,0.05 0,0.08l-0.01 16.09c-12.94,4.73 -24.96,11.85 -35.34,20.91l-22.26 -12.94c-2.85,-1.66 -6.1,-2.53 -9.41,-2.53 -6.73,0 -12.95,3.62 -16.27,9.48l-18.81 32.84c-1.64,2.88 -2.52,6.15 -2.52,9.48 0,6.76 3.59,13.01 9.42,16.43l22.01 12.82c-1.3,6.81 -2.01,13.76 -2.05,20.7 0.04,6.94 0.73,13.88 2.04,20.7l-22.01 12.83c-5.82,3.41 -9.41,9.67 -9.41,16.42 0,3.32 0.88,6.59 2.52,9.48l18.81 32.84c3.32,5.85 9.54,9.47 16.29,9.47 3.3,0 6.54,-0.87 9.41,-2.53l22.24 -12.94c10.38,9.06 22.4,16.17 35.34,20.9l0 16.1c0,0.02 0,0.04 0,0.07 0,10.38 8.39,18.83 18.77,18.89l18.81 0 0.03 0 18.81 -0c10.38,-0.06 18.77,-8.5 18.77,-18.89 0,-0.02 0,-0.05 0,-0.07l0 -16.1c12.95,-4.73 24.96,-11.84 35.34,-20.9l22.24 12.94c2.87,1.66 6.11,2.53 9.41,2.53 6.75,0 12.96,-3.62 16.29,-9.47l18.81 -32.84c1.64,-2.88 2.52,-6.15 2.52,-9.48 0,-6.76 -3.59,-13.01 -9.41,-16.42l-22.01 -12.83c1.3,-6.82 1.99,-13.76 2.04,-20.7 -0.04,-6.94 -0.75,-13.89 -2.05,-20.7l22.01 -12.82c5.83,-3.41 9.42,-9.67 9.42,-16.43 0,-3.32 -0.88,-6.59 -2.52,-9.48l-18.81 -32.84c-3.32,-5.85 -9.54,-9.48 -16.27,-9.48 -3.31,0 -6.55,0.88 -9.41,2.53l-22.26 12.94c-10.38,-9.06 -22.41,-16.17 -35.34,-20.91l-0.01 -16.09c0,-0.02 0,-0.05 0,-0.08 0,-10.4 -8.4,-18.84 -18.8,-18.89l-18.77 0zm0 265.45l-0.03 0 -9.37 0.04c-5.21,-0.01 -9.43,-4.24 -9.43,-9.45 0,-0.01 0,-0.03 0,-0.04l0 -20.87c-19.97,-4.14 -38.06,-14.71 -51.48,-30.07l-26.1 15.21c-1.42,0.83 -3.05,1.27 -4.71,1.27 -3.37,0 -6.47,-1.81 -8.13,-4.74l-9.45 -16.42c-0.83,-1.44 -1.26,-3.08 -1.26,-4.74 0,-3.38 1.79,-6.51 4.71,-8.22l26.22 -15.28c-3.28,-9.62 -4.99,-19.75 -4.99,-29.93 0,-10.18 1.71,-20.32 5.01,-29.94l-26.25 -15.28c-2.91,-1.7 -4.7,-4.82 -4.7,-8.2 0,-1.66 0.43,-3.3 1.26,-4.74l9.4 -16.42c1.67,-2.92 4.78,-4.73 8.14,-4.73 1.66,0 3.27,0.44 4.71,1.27l26.09 15.21c13.44,-15.36 31.54,-25.95 51.52,-30.07l0 -20.88c0,-0.01 0,-0.02 0,-0.03 0,-5.2 4.21,-9.43 9.4,-9.44l9.4 0 0.03 0 9.4 0c5.2,0.02 9.4,4.24 9.4,9.44 0,0.01 0,0.02 0,0.03l0 20.88c19.98,4.13 38.08,14.71 51.52,30.07l26.09 -15.21c1.44,-0.83 3.05,-1.27 4.71,-1.27 3.36,0 6.47,1.81 8.14,4.73l9.4 16.42c0.83,1.44 1.26,3.08 1.26,4.74 0,3.37 -1.79,6.5 -4.7,8.2l-26.25 15.28c3.3,9.62 5.01,19.75 5.01,29.94 0,10.18 -1.71,20.31 -4.99,29.93l26.22 15.28c2.92,1.71 4.71,4.84 4.71,8.22 0,1.66 -0.43,3.3 -1.26,4.74l-9.45 16.42c-1.66,2.93 -4.76,4.74 -8.13,4.74 -1.66,0 -3.28,-0.44 -4.71,-1.27l-26.1 -15.21c-13.42,15.36 -31.51,25.93 -51.48,30.07l0 20.87c0,0.01 0,0.03 0,0.04 0,5.21 -4.22,9.44 -9.43,9.45l-9.37 -0.04zm-0 -170.63c26.2,-0.55 47.77,21.45 47.77,47.41 0,26.18 -21.24,47.41 -47.41,47.41l-0.36 -0.01 -0.03 0 -0.36 0.01c-26.17,0 -47.41,-21.23 -47.41,-47.41 0,-25.96 21.57,-47.96 47.77,-47.41l0 0 0.03 0z" data-name="Caminho 1866"/>
 </g>
</svg>
