<?xml version="1.0" encoding="UTF-8"?>
<!DOCTYPE svg PUBLIC "-//W3C//DTD SVG 1.1//EN" "http://www.w3.org/Graphics/SVG/1.1/DTD/svg11.dtd">
<!-- Creator: CorelDRAW 2017 -->
<svg xmlns="http://www.w3.org/2000/svg" xml:space="preserve" width="16.2307mm" height="16.0374mm" version="1.1" style="shape-rendering:geometricPrecision; text-rendering:geometricPrecision; image-rendering:optimizeQuality; fill-rule:evenodd; clip-rule:evenodd"
viewBox="0 0 276.63 273.33"
 xmlns:xlink="http://www.w3.org/1999/xlink">
 <defs>
  <style type="text/css">
   <![CDATA[
    .fil0 {fill:url(#id0);fill-rule:nonzero}
   ]]>
  </style>
  <linearGradient id="id0" gradientUnits="userSpaceOnUse" x1="238.79" y1="273.33" x2="238.8" y2="0">
   <stop offset="0" style="stop-opacity:1; stop-color:#9BF2ED"/>
   <stop offset="1" style="stop-opacity:1; stop-color:#8687F6"/>
  </linearGradient>
 </defs>
 <g id="Layer_x0020_1">
  <metadata id="CorelCorpID_0Corel-Layer"/>
  <path class="fil0" d="M231.28 0l45.35 0 0 273.33 -53.87 0 0 -273.33 8.52 0zm28.31 17.04l-19.78 0 0 239.24 19.78 0 0 -239.24zm-101.96 120.51l45.42 0 0 135.75 -54 0 0 -135.75 8.59 0zm28.24 17.01l-19.65 0 0 101.74 19.65 0 0 -101.74zm-104.52 -78.66l45.35 0 0 197.43 -53.88 0 0 -197.43 8.53 0zm28.3 17.05l-19.78 0 0 163.33 19.78 0 0 -163.33zm-101.21 92.68l45.26 0 0 87.69 -53.7 0 0 -87.69 8.44 0zm28.39 17.04l-19.95 0 0 53.6 19.95 0 0 -53.6z"/>
 </g>
</svg>
