<?xml version="1.0" encoding="UTF-8"?>
<!DOCTYPE svg PUBLIC "-//W3C//DTD SVG 1.1//EN" "http://www.w3.org/Graphics/SVG/1.1/DTD/svg11.dtd">
<!-- Creator: CorelDRAW 2017 -->
<svg xmlns="http://www.w3.org/2000/svg" xml:space="preserve" width="5.5476mm" height="5.5697mm" version="1.1" style="shape-rendering:geometricPrecision; text-rendering:geometricPrecision; image-rendering:optimizeQuality; fill-rule:evenodd; clip-rule:evenodd"
viewBox="0 0 54.39 54.6"
 xmlns:xlink="http://www.w3.org/1999/xlink">
 <defs>
  <style type="text/css">
   <![CDATA[
    .fil0 {fill:#8DA8F4;fill-rule:nonzero}
   ]]>
  </style>
 </defs>
 <g id="Layer_x0020_1">
  <metadata id="CorelCorpID_0Corel-Layer"/>
  <path class="fil0" d="M49.98 2.94l-45.56 0c-0.4,0 -0.77,0.17 -1.04,0.43 -0.27,0.27 -0.43,0.64 -0.43,1.04l0 8.3 48.51 0 0 -8.3c0,-0.4 -0.17,-0.77 -0.43,-1.04 -0.27,-0.26 -0.64,-0.43 -1.04,-0.43zm-47.03 13.66l0 33.59c0,0.4 0.17,0.77 0.43,1.04 0.26,0.27 0.63,0.43 1.04,0.43l45.56 0c0.4,0 0.77,-0.17 1.04,-0.43 0.27,-0.27 0.43,-0.64 0.43,-1.04l0 -33.59 -48.51 0zm1.47 -16.6l45.56 0c1.21,0 2.32,0.5 3.12,1.29 0.8,0.8 1.29,1.91 1.29,3.12l0 45.78c0,1.21 -0.5,2.31 -1.29,3.11 -0.8,0.8 -1.91,1.3 -3.12,1.3l-45.56 0c-1.21,0 -2.31,-0.5 -3.11,-1.29 -0.8,-0.8 -1.3,-1.9 -1.3,-3.12l0 -45.78c0,-1.21 0.5,-2.32 1.29,-3.12 0.8,-0.8 1.9,-1.29 3.12,-1.29zm41.8 5.79c1.07,0 1.95,0.87 1.95,1.95 0,1.07 -0.87,1.95 -1.95,1.95 -1.07,0 -1.95,-0.87 -1.95,-1.95 0,-1.07 0.87,-1.95 1.95,-1.95zm-6.7 0c1.07,0 1.95,0.87 1.95,1.95 0,1.07 -0.87,1.95 -1.95,1.95 -1.07,0 -1.95,-0.87 -1.95,-1.95 0,-1.07 0.87,-1.95 1.95,-1.95zm-6.92 0c1.07,0 1.95,0.87 1.95,1.95 0,1.07 -0.87,1.95 -1.95,1.95 -1.07,0 -1.95,-0.87 -1.95,-1.95 0,-1.07 0.87,-1.95 1.95,-1.95z"/>
 </g>
</svg>
